<?xml version="1.0" standalone="no"?>
<!DOCTYPE svg PUBLIC "-//W3C//DTD SVG 20010904//EN"
 "http://www.w3.org/TR/2001/REC-SVG-20010904/DTD/svg10.dtd">
<svg version="1.0" xmlns="http://www.w3.org/2000/svg"
 width="400.000000pt" height="400.000000pt" viewBox="0 0 400.000000 400.000000"
 preserveAspectRatio="xMidYMid meet">
<metadata>
Created by potrace 1.14, written by Peter Selinger 2001-2017
</metadata>
<g transform="translate(0.000000,400.000000) scale(0.100000,-0.100000)"
fill="#000000" stroke="none">
<path d="M1745 3987 c-27 -5 -90 -23 -140 -39 -140 -45 -150 -48 -171 -48 -10
0 -37 -8 -59 -19 -37 -17 -59 -26 -132 -50 -76 -25 -105 -32 -169 -37 -71 -5
-94 -19 -94 -56 0 -10 -4 -18 -10 -18 -5 0 -10 6 -10 13 0 8 -3 8 -8 1 -4 -6
-15 -13 -25 -17 -13 -5 -16 -13 -12 -26 6 -18 -27 -95 -46 -107 -5 -3 -9 -32
-9 -64 0 -67 -8 -93 -44 -135 -14 -16 -30 -35 -36 -42 -5 -7 -10 -17 -10 -22
0 -6 -9 -15 -19 -21 -11 -5 -23 -20 -27 -32 -9 -29 -33 -47 -60 -48 -28 0 -31
9 -44 137 -15 148 -12 143 -71 143 -44 0 -51 -3 -62 -27 -6 -16 -14 -30 -18
-33 -14 -11 -38 -69 -53 -130 -9 -36 -23 -71 -30 -78 -9 -9 -53 -13 -159 -14
-102 -1 -150 -5 -157 -13 -11 -13 2 -406 19 -590 9 -95 15 -190 27 -495 2 -74
6 -151 8 -170 13 -140 18 -320 8 -320 -20 0 -75 54 -88 87 -8 18 -21 33 -29
33 -13 0 -15 -55 -15 -419 l0 -419 25 -6 c35 -9 35 -52 0 -68 l-25 -11 0 -414
0 -413 2000 0 2000 0 -2 998 c-2 742 -6 1002 -15 1017 -13 23 -25 52 -30 78
-1 10 -12 37 -22 60 -10 23 -24 62 -31 87 -6 25 -22 75 -35 112 -14 37 -22 75
-19 83 9 22 51 42 107 50 39 6 47 11 46 29 0 11 -16 34 -35 49 l-34 29 -10
-26 c-16 -44 -30 -29 -30 32 0 74 8 85 64 86 l46 1 0 200 0 200 -52 12 c-29 7
-80 15 -113 18 -116 11 -145 16 -140 25 3 4 -2 11 -11 14 -26 10 -241 8 -369
-4 -108 -9 -194 -7 -219 8 -14 8 36 31 69 32 l30 0 -23 18 c-16 12 -19 21 -12
28 7 7 8 19 1 35 -5 14 -7 37 -4 52 5 25 8 27 39 21 38 -7 38 -8 24 33 -11 30
-66 63 -107 63 -23 0 -33 18 -33 61 0 23 -4 29 -17 27 -12 -2 -19 4 -21 20 -2
14 -10 22 -22 22 -29 0 -73 22 -94 48 -10 13 -20 21 -23 18 -2 -2 -30 7 -61
21 -60 27 -122 78 -122 100 0 8 -13 13 -32 14 -18 0 -46 2 -63 5 -16 2 -41 6
-55 8 -18 2 -25 10 -26 27 -1 13 -7 25 -13 27 -20 7 -111 106 -124 135 l-12
27 -300 -1 c-165 -1 -322 -6 -350 -12z m458 -858 c32 1 62 -4 85 -16 21 -11
56 -25 80 -33 32 -10 48 -23 63 -50 11 -19 32 -44 47 -54 34 -22 61 -58 65
-85 2 -11 6 -23 9 -27 4 -3 2 -15 -5 -25 -9 -14 -9 -21 0 -30 9 -9 9 -17 1
-32 -6 -11 -12 -50 -14 -85 -1 -35 -5 -67 -8 -70 -15 -14 -5 -54 14 -59 11 -3
20 -9 20 -13 0 -4 13 -10 28 -13 17 -4 34 -17 42 -34 8 -15 21 -32 27 -36 7
-4 13 -13 13 -19 0 -7 12 -24 27 -40 26 -27 30 -49 24 -123 -2 -16 2 -55 7
-85 7 -38 7 -59 -1 -68 -7 -9 -7 -16 1 -24 14 -14 32 -2 32 22 0 10 10 22 22
26 12 4 31 17 41 30 10 13 24 24 32 24 7 0 18 7 25 15 7 8 23 15 36 15 13 0
24 2 24 4 0 18 -17 39 -42 52 l-29 15 21 27 c12 14 42 36 68 47 26 11 54 24
62 29 26 17 73 12 99 -11 26 -25 41 -29 41 -13 0 6 5 10 12 10 6 0 8 -3 5 -6
-3 -4 -2 -14 3 -24 10 -19 -12 -183 -32 -235 -22 -59 -80 -175 -86 -175 -4 0
-27 -18 -52 -41 -54 -50 -129 -89 -169 -89 -45 0 -78 16 -86 41 -15 48 -31 50
-53 10 -12 -21 -19 -40 -16 -43 4 -5 -10 -22 -79 -96 -34 -35 -129 -84 -155
-79 -18 3 -26 -1 -33 -21 -5 -13 -12 -22 -16 -18 -4 3 -18 -4 -32 -17 -39 -36
-59 -40 -63 -14 -2 14 -11 23 -25 25 -13 2 -29 12 -36 22 -11 16 -23 19 -73
16 -32 -2 -67 1 -76 6 -13 6 -18 5 -18 -6 0 -7 7 -16 15 -20 12 -4 13 -10 4
-33 -7 -15 -15 -44 -18 -63 -5 -29 -11 -36 -35 -40 -48 -8 -45 -37 3 -30 9 1
12 -4 7 -15 -3 -9 -6 -20 -6 -24 0 -5 -11 -6 -25 -3 -17 3 -25 0 -25 -10 0
-27 -186 -138 -230 -138 -51 1 -80 59 -40 80 11 6 20 16 20 23 0 11 64 37 91
37 6 0 25 10 42 22 18 13 40 21 50 20 13 -3 18 2 15 15 -1 10 8 34 21 52 l25
34 -23 -6 c-13 -3 -33 -2 -45 3 -24 9 -66 47 -66 59 0 5 18 27 40 49 22 22 40
42 40 45 0 14 -53 1 -75 -19 -14 -13 -34 -24 -43 -24 -9 0 -41 -14 -71 -30
-68 -37 -118 -52 -139 -40 -10 5 -29 11 -43 14 -29 6 -65 37 -92 80 -23 35
-17 81 18 118 19 21 23 33 18 61 -4 26 -9 34 -20 30 -16 -6 -35 15 -27 29 3 4
15 8 27 8 17 0 27 13 46 56 13 31 33 61 43 67 10 7 18 17 18 24 0 15 32 33 59
33 27 0 27 17 1 25 -20 6 -34 39 -28 65 2 7 -15 23 -37 35 -22 12 -58 39 -80
59 -37 34 -85 62 -147 85 -16 6 -28 15 -28 21 0 5 -7 10 -15 10 -13 0 -43 14
-162 74 -14 6 -23 20 -23 34 0 13 -6 29 -12 36 -10 10 -16 -5 -30 -78 -19 -95
-34 -135 -56 -149 -7 -5 -10 -12 -8 -16 3 -4 6 -26 7 -49 3 -36 6 -41 21 -36
21 6 23 -10 6 -49 -7 -15 -19 -27 -27 -27 -11 0 -10 -4 4 -14 21 -15 27 -66 8
-66 -20 0 -15 -18 7 -30 11 -6 20 -18 20 -27 0 -16 60 -78 83 -86 7 -2 13 -17
13 -33 3 -45 3 -46 19 -40 8 3 18 -2 23 -11 8 -14 12 -13 31 6 22 22 65 28 76
10 5 -7 13 -5 24 5 13 12 28 14 61 8 24 -4 45 -13 47 -19 3 -7 -25 -41 -61
-76 -56 -56 -70 -65 -111 -69 -55 -7 -91 -34 -73 -55 9 -11 9 -19 -1 -34 -6
-11 -9 -29 -6 -39 8 -24 -18 -38 -90 -50 -59 -10 -145 -45 -145 -60 0 -6 -8
-10 -17 -10 -10 0 -29 -9 -43 -20 -14 -11 -37 -20 -52 -20 -30 0 -78 19 -78
31 0 10 27 19 55 19 13 0 27 5 30 10 4 6 13 7 23 2 9 -5 31 -5 47 -1 23 5 25
7 8 8 -12 0 -28 10 -36 22 -11 15 -16 17 -21 7 -3 -7 -3 -2 0 12 3 14 8 126
11 250 7 276 7 278 5 315 -1 17 -2 37 -3 45 0 41 -8 99 -17 139 -6 24 -8 50
-5 57 3 8 0 14 -7 14 -9 0 -11 19 -8 75 3 44 1 75 -4 75 -18 0 16 198 37 212
5 4 33 5 60 2 28 -3 55 -6 62 -6 6 -1 9 -7 6 -15 -3 -8 2 -13 14 -13 11 0 28
-9 37 -19 20 -22 37 -19 74 16 18 17 32 49 48 114 21 81 63 164 87 167 4 1 31
13 60 27 48 22 65 25 165 24 106 -1 212 15 212 33 0 4 7 8 15 8 9 0 34 9 55
20 22 11 40 17 40 14 0 -4 9 1 21 12 17 16 40 20 125 22 72 3 104 0 104 -7 0
-8 9 -7 27 3 16 8 32 12 37 8 5 -3 32 -4 59 -3z m-1990 -36 c18 -6 24 -23 7
-23 -5 0 -10 -6 -10 -13 0 -7 -13 -18 -30 -24 -29 -11 -30 -10 -30 17 0 43 10
62 29 54 9 -3 24 -9 34 -11z m497 -423 c-6 -12 -14 -19 -17 -16 -11 10 -4 78
9 94 11 13 13 10 16 -21 2 -20 -2 -46 -8 -57z m2854 4 c9 -3 16 -14 16 -24 0
-11 5 -22 10 -25 15 -10 12 -46 -7 -67 -9 -10 -28 -18 -42 -18 -64 1 -81 61
-32 111 32 32 32 32 55 23z m142 -61 l-1 -68 -40 0 -40 0 -6 49 c-6 58 13 86
60 86 l28 0 -1 -67z m147 0 c17 -43 14 -77 -7 -70 -6 2 -16 18 -21 35 -16 47
-23 49 -40 9 -15 -36 -32 -54 -42 -44 -7 8 45 120 60 129 16 10 30 -8 50 -59z
m-648 41 c15 -15 17 -15 34 0 18 16 91 23 91 8 0 -4 -5 -13 -12 -20 -7 -7 -15
-32 -18 -57 -7 -59 -24 -59 -28 0 -3 38 -6 45 -24 45 -28 0 -48 -29 -41 -61 6
-34 -12 -46 -29 -19 -17 27 -24 25 -42 -10 -13 -27 -13 -32 1 -46 25 -24 12
-30 -97 -41 -30 -3 -64 -11 -75 -19 -10 -8 -23 -14 -27 -14 -12 0 -9 33 5 51
14 19 70 49 91 49 24 0 30 20 10 35 -11 8 -14 15 -7 15 6 0 14 -4 18 -10 3 -5
12 -7 19 -4 8 3 16 -4 19 -16 10 -39 29 -12 22 31 -8 49 1 78 28 89 32 13 44
12 62 -6z m245 -45 c14 -34 18 -55 12 -61 -15 -15 -30 -2 -37 32 -9 40 -21 38
-39 -5 -8 -19 -20 -35 -25 -35 -14 0 -14 -1 10 64 28 73 49 74 79 5z m-373
-16 c3 -7 -4 -9 -16 -6 -12 3 -18 9 -15 15 7 11 26 6 31 -9z m-2226 -140 c-4
-28 -6 -32 -9 -15 -3 22 3 52 11 52 1 0 1 -17 -2 -37z m-288 -28 c14 0 29 -56
17 -70 -12 -15 3 -37 22 -30 17 7 28 -20 28 -67 0 -37 -15 -43 -42 -16 -14 14
-23 17 -26 10 -2 -7 -10 -12 -18 -12 -8 0 -11 -6 -8 -15 4 -8 1 -15 -5 -15 -7
0 -11 -8 -9 -17 3 -15 -5 -18 -52 -19 -71 -1 -100 5 -100 21 0 7 -9 15 -19 18
-13 3 -22 17 -26 40 -9 45 1 74 26 82 13 4 19 15 19 35 0 41 29 70 85 84 45
12 50 11 73 -8 13 -12 29 -21 35 -21z m306 -181 c5 3 6 -7 3 -22 l-6 -27 -7
25 c-4 14 -7 43 -6 65 l0 40 4 -43 c2 -23 8 -40 12 -38z m-621 -66 c4 1 7 -2
6 -8 -1 -5 -2 -21 -2 -35 -2 -27 -16 -29 -44 -5 -12 11 -17 29 -15 58 l1 42
24 -27 c13 -16 27 -27 30 -25z m1095 32 c7 0 21 -13 31 -28 11 -16 32 -37 47
-48 24 -16 26 -21 14 -34 -7 -8 -23 -36 -34 -62 -11 -27 -27 -48 -35 -48 -8 0
-19 -8 -25 -17 -8 -14 -12 -15 -25 -4 -11 10 -20 10 -29 3 -15 -13 -37 -1 -41
20 -5 37 -36 68 -69 68 -56 0 -64 15 -18 36 29 14 44 28 52 52 11 35 33 51 73
54 14 1 28 9 32 18 5 11 8 12 11 3 3 -7 10 -13 16 -13z m-1063 -54 c0 -3 -4
-8 -10 -11 -5 -3 -10 -1 -10 4 0 6 5 11 10 11 6 0 10 -2 10 -4z m2914 -163
c30 -98 29 -106 -25 -217 -28 -59 -55 -109 -61 -112 -14 -9 12 -34 36 -34 27
0 40 -9 55 -38 16 -29 14 -30 -33 -34 -50 -3 -54 -13 -14 -34 18 -9 54 -32 81
-50 26 -19 50 -34 53 -34 3 0 14 -10 25 -22 25 -31 24 -103 -2 -162 -24 -54
-151 -211 -204 -252 -50 -38 -122 -44 -163 -14 -16 12 -36 20 -43 18 -8 -3
-20 1 -27 9 -7 7 -25 13 -38 13 -31 0 -100 36 -132 69 -18 18 -22 31 -18 50 4
14 9 39 11 56 6 35 54 193 66 217 5 10 9 28 9 40 0 48 57 188 76 188 7 0 16 9
19 20 16 49 135 -5 126 -57 -1 -7 3 -13 9 -13 6 0 10 16 9 38 -3 40 42 146
122 295 44 80 54 89 63 60z m-2977 -140 c-3 -10 -5 -2 -5 17 0 19 2 27 5 18 2
-10 2 -26 0 -35z m3051 -96 c12 -34 30 -83 39 -109 9 -27 20 -48 25 -48 4 0 8
-13 8 -30 0 -26 -4 -30 -27 -30 -35 1 -53 15 -78 63 -11 20 -23 37 -27 37 -5
0 -8 9 -8 19 0 11 -4 23 -10 26 -15 9 -12 38 10 87 33 74 34 74 68 -15z
m-2928 38 c23 -24 23 -26 5 -39 -31 -23 -50 -13 -53 27 -4 45 13 49 48 12z
m377 -27 c-3 -8 -6 -5 -6 6 -1 11 2 17 5 13 3 -3 4 -12 1 -19z m160 -50 c-3
-7 -5 -2 -5 12 0 14 2 19 5 13 2 -7 2 -19 0 -25z m-640 -32 c-5 -13 17 -29 61
-41 17 -5 22 -14 22 -40 0 -28 -5 -36 -24 -41 -55 -13 -70 -3 -79 54 -9 56 -5
82 14 82 6 0 9 -6 6 -14z m640 -28 c-3 -8 -6 -5 -6 6 -1 11 2 17 5 13 3 -3 4
-12 1 -19z m1593 -28 c0 -5 -7 -10 -15 -10 -8 0 -15 5 -15 10 0 6 7 10 15 10
8 0 15 -4 15 -10z m-352 -364 c7 -4 11 -25 8 -52 -2 -32 0 -44 10 -44 7 0 17
6 21 13 30 47 133 78 133 39 0 -10 5 -23 12 -30 21 -21 17 -122 -8 -177 -21
-48 -93 -135 -112 -135 -5 0 -21 -11 -36 -25 -15 -14 -45 -28 -69 -31 -23 -4
-46 -10 -52 -14 -15 -11 -90 -20 -182 -22 -66 -1 -87 3 -110 18 -15 10 -32 20
-38 20 -5 1 -15 2 -22 3 -22 2 -53 67 -53 113 0 34 6 52 24 71 13 14 20 27 14
29 -18 6 5 39 38 53 19 8 34 21 34 29 0 27 38 56 73 56 17 0 46 8 62 19 17 10
40 16 53 15 12 -2 22 0 22 5 0 6 19 21 43 35 41 26 105 31 135 12z m-1678
-140 c0 -15 -14 -35 -21 -30 -15 9 -10 34 6 34 8 0 15 -2 15 -4z m-90 -57 c0
-23 -4 -30 -17 -27 -10 1 -24 -2 -32 -6 -8 -5 -1 7 15 27 16 20 30 37 32 37 1
0 2 -14 2 -31z m2420 -37 c0 -5 26 -17 58 -26 31 -10 71 -22 87 -28 17 -6 42
-13 58 -15 15 -3 30 -9 33 -14 8 -13 -62 -75 -116 -103 -25 -13 -71 -40 -103
-59 -78 -47 -106 -53 -148 -29 -60 33 -75 130 -28 180 11 12 17 22 13 22 -4 0
3 11 16 25 14 15 35 25 51 25 14 0 32 7 39 15 13 16 40 20 40 7z m-2620 -162
c0 -37 -14 -46 -27 -17 -7 15 -8 29 -1 40 13 24 28 12 28 -23z m4 -135 c-4 -8
-10 -12 -15 -9 -11 6 -12 48 -2 58 10 10 24 -31 17 -49z m1920 -79 c-3 -9 -10
-13 -15 -10 -5 3 -6 -2 -3 -10 4 -10 -1 -18 -12 -22 -11 -3 -27 -10 -37 -15
-11 -6 -22 -8 -25 -5 -3 3 1 6 9 7 8 0 3 5 -10 10 -29 11 -26 16 13 21 17 1
41 14 54 27 25 25 36 24 26 -3z"/>
<path d="M2285 2529 c-22 -4 -50 -10 -61 -14 -12 -4 -25 -2 -28 4 -4 6 -15 7
-29 2 -12 -5 -51 -16 -87 -26 -115 -29 -164 -47 -220 -81 -51 -30 -87 -69 -82
-86 1 -5 -2 -8 -7 -8 -21 0 -37 -115 -19 -137 7 -9 5 -14 -6 -18 -9 -3 -23 -7
-31 -10 -8 -2 -15 -10 -15 -16 0 -8 15 -10 49 -5 32 4 52 3 56 -4 5 -7 12 -5
22 7 13 16 14 16 9 1 -3 -12 -1 -15 9 -12 8 3 14 9 13 12 -2 22 4 32 22 32 11
0 20 6 20 14 0 8 9 18 20 21 25 8 65 88 56 111 -4 12 -2 15 9 10 9 -3 19 3 26
15 8 16 13 18 25 9 7 -7 32 -10 54 -8 22 2 40 0 40 -4 0 -5 11 -18 25 -30 14
-12 25 -30 25 -40 0 -10 6 -18 13 -19 14 -1 32 -4 97 -17 25 -5 60 -8 78 -8
33 1 34 2 38 49 2 29 0 45 -6 42 -6 -3 -7 1 -4 10 4 8 1 21 -5 29 -6 7 -8 15
-5 19 3 3 -2 17 -12 31 -9 15 -15 28 -13 29 2 2 17 11 32 21 29 18 29 18 8 32
-12 9 -21 21 -21 28 0 17 -43 23 -95 15z m44 -115 c17 -4 31 -10 31 -15 0 -14
-70 -23 -83 -10 -8 8 -3 11 19 12 l29 1 -30 8 c-37 9 -9 12 34 4z"/>
<path d="M2405 2390 c3 -5 10 -10 16 -10 5 0 9 5 9 10 0 6 -7 10 -16 10 -8 0
-12 -4 -9 -10z"/>
<path d="M2310 2200 c-8 -5 -26 -10 -38 -10 -33 0 -82 -31 -82 -52 0 -18 36
-48 58 -48 7 0 22 16 33 35 12 19 28 35 37 35 10 0 25 12 35 25 18 25 18 25
-5 25 -13 0 -30 -5 -38 -10z"/>
<path d="M2188 2083 c7 -3 16 -2 19 1 4 3 -2 6 -13 5 -11 0 -14 -3 -6 -6z"/>
<path d="M1920 2040 c0 -5 5 -10 11 -10 5 0 7 5 4 10 -3 6 -8 10 -11 10 -2 0
-4 -4 -4 -10z"/>
<path d="M1980 1470 c0 -5 5 -10 10 -10 6 0 10 5 10 10 0 6 -4 10 -10 10 -5 0
-10 -4 -10 -10z"/>
<path d="M3517 2633 c-10 -9 -9 -53 1 -53 12 0 42 34 42 48 0 13 -32 17 -43 5z"/>
<path d="M3660 2630 c0 -5 5 -10 10 -10 6 0 10 5 10 10 0 6 -4 10 -10 10 -5 0
-10 -4 -10 -10z"/>
<path d="M3668 2583 c7 -3 16 -2 19 1 4 3 -2 6 -13 5 -11 0 -14 -3 -6 -6z"/>
<path d="M3152 2619 c2 -6 8 -10 13 -10 5 0 11 4 13 10 2 6 -4 11 -13 11 -9 0
-15 -5 -13 -11z"/>
<path d="M3048 1643 c7 -3 16 -2 19 1 4 3 -2 6 -13 5 -11 0 -14 -3 -6 -6z"/>
<path d="M2690 3976 c0 -14 3 -27 8 -29 4 -3 52 1 107 9 55 8 119 17 142 20
24 3 45 9 48 15 4 5 -55 9 -149 9 l-156 0 0 -24z"/>
<path d="M3061 3984 c0 -11 3 -14 6 -6 3 7 2 16 -1 19 -3 4 -6 -2 -5 -13z"/>
<path d="M3507 3993 c-22 -21 11 -63 50 -63 15 0 34 -6 42 -14 10 -9 47 -16
101 -18 47 -3 95 -10 108 -17 21 -11 22 -14 7 -25 -14 -10 -11 -15 28 -34 46
-23 65 -26 91 -16 21 8 20 43 -1 50 -55 17 -93 54 -56 54 11 0 23 3 27 7 3 4
16 8 27 10 30 5 68 35 69 56 0 16 -18 17 -243 17 -134 0 -247 -3 -250 -7z"/>
<path d="M3060 3875 c0 -15 6 -25 14 -25 8 0 14 10 14 25 0 15 -6 25 -14 25
-8 0 -14 -10 -14 -25z"/>
<path d="M3106 3874 c-3 -9 -6 -18 -6 -20 0 -2 23 -4 50 -4 30 0 50 4 50 11 0
7 -9 9 -23 5 -13 -3 -32 1 -44 9 -19 13 -22 13 -27 -1z"/>
<path d="M3220 3875 c-11 -13 -10 -14 4 -9 9 3 16 10 16 15 0 13 -6 11 -20 -6z"/>
<path d="M3703 3843 c-35 -7 -27 -21 10 -18 47 4 47 4 47 15 0 10 -16 11 -57
3z"/>
<path d="M3812 3612 c-7 -29 -12 -57 -12 -62 0 -19 21 -10 30 13 5 12 9 18 9
13 1 -5 7 -3 15 3 11 10 16 8 21 -8 6 -19 68 -41 81 -29 10 11 -9 88 -22 88
-8 0 -14 -4 -14 -10 0 -5 -10 -10 -23 -10 -13 0 -28 -5 -35 -12 -15 -15 -23
-7 -31 34 -8 33 -8 33 -19 -20z"/>
<path d="M3806 3444 c-9 -24 -7 -112 3 -118 5 -3 11 8 14 24 5 24 12 30 44 35
21 4 47 9 58 12 16 3 17 2 5 -6 -17 -12 -6 -28 25 -33 22 -3 30 19 16 42 -9
13 -44 20 -110 21 -14 1 -25 8 -28 20 -6 23 -19 25 -27 3z"/>
<path d="M3842 3308 c3 -20 10 -23 51 -26 45 -3 77 9 77 28 0 4 -10 8 -22 7
-13 0 -42 3 -66 7 -41 7 -43 6 -40 -16z"/>
<path d="M3925 2640 c-8 -12 20 -24 35 -15 6 3 8 11 5 16 -8 12 -32 12 -40 -1z"/>
</g>
</svg>
